<mxfile host="Electron" modified="2024-03-18T11:27:56.021Z" agent="Mozilla/5.0 (Windows NT 10.0; Win64; x64) AppleWebKit/537.36 (KHTML, like Gecko) draw.io/24.0.4 Chrome/120.0.6099.109 Electron/28.1.0 Safari/537.36" etag="-jFNApWGZdf6IVLgYD2Q" version="24.0.4" type="device">
  <diagram name="Page-1" id="Bc9SQh2l6MkxnpgPTYf0">
    <mxGraphModel dx="1050" dy="621" grid="1" gridSize="10" guides="1" tooltips="1" connect="1" arrows="1" fold="1" page="1" pageScale="1" pageWidth="850" pageHeight="1100" math="0" shadow="0">
      <root>
        <mxCell id="0" />
        <mxCell id="1" parent="0" />
        <mxCell id="XA2GUmZifDRQ7ThlRGcT-2" value="Math" style="rounded=0;whiteSpace=wrap;html=1;" vertex="1" parent="1">
          <mxGeometry x="390" y="340" width="120" height="60" as="geometry" />
        </mxCell>
        <mxCell id="XA2GUmZifDRQ7ThlRGcT-5" style="rounded=0;orthogonalLoop=1;jettySize=auto;html=1;exitX=0;exitY=0.5;exitDx=0;exitDy=0;entryX=1;entryY=0.5;entryDx=0;entryDy=0;" edge="1" parent="1" source="XA2GUmZifDRQ7ThlRGcT-3" target="XA2GUmZifDRQ7ThlRGcT-2">
          <mxGeometry relative="1" as="geometry" />
        </mxCell>
        <mxCell id="XA2GUmZifDRQ7ThlRGcT-3" value="Geometry" style="rounded=0;whiteSpace=wrap;html=1;" vertex="1" parent="1">
          <mxGeometry x="580" y="340" width="120" height="60" as="geometry" />
        </mxCell>
        <mxCell id="XA2GUmZifDRQ7ThlRGcT-4" value="Data" style="rounded=0;whiteSpace=wrap;html=1;" vertex="1" parent="1">
          <mxGeometry x="580" y="220" width="120" height="60" as="geometry" />
        </mxCell>
        <mxCell id="XA2GUmZifDRQ7ThlRGcT-11" style="edgeStyle=none;rounded=0;orthogonalLoop=1;jettySize=auto;html=1;exitX=1;exitY=0.5;exitDx=0;exitDy=0;entryX=0;entryY=0.5;entryDx=0;entryDy=0;strokeColor=default;align=center;verticalAlign=middle;fontFamily=Helvetica;fontSize=11;fontColor=default;labelBackgroundColor=default;endArrow=classic;" edge="1" parent="1" source="XA2GUmZifDRQ7ThlRGcT-6" target="XA2GUmZifDRQ7ThlRGcT-4">
          <mxGeometry relative="1" as="geometry" />
        </mxCell>
        <mxCell id="XA2GUmZifDRQ7ThlRGcT-6" value="Generator" style="rounded=0;whiteSpace=wrap;html=1;" vertex="1" parent="1">
          <mxGeometry x="390" y="220" width="120" height="60" as="geometry" />
        </mxCell>
        <mxCell id="XA2GUmZifDRQ7ThlRGcT-12" style="edgeStyle=none;rounded=0;orthogonalLoop=1;jettySize=auto;html=1;exitX=0.5;exitY=1;exitDx=0;exitDy=0;entryX=0.5;entryY=0;entryDx=0;entryDy=0;strokeColor=default;align=center;verticalAlign=middle;fontFamily=Helvetica;fontSize=11;fontColor=default;labelBackgroundColor=default;endArrow=classic;" edge="1" parent="1" source="XA2GUmZifDRQ7ThlRGcT-7" target="XA2GUmZifDRQ7ThlRGcT-6">
          <mxGeometry relative="1" as="geometry" />
        </mxCell>
        <mxCell id="XA2GUmZifDRQ7ThlRGcT-13" style="edgeStyle=none;rounded=0;orthogonalLoop=1;jettySize=auto;html=1;exitX=0.5;exitY=1;exitDx=0;exitDy=0;entryX=0.5;entryY=0;entryDx=0;entryDy=0;strokeColor=default;align=center;verticalAlign=middle;fontFamily=Helvetica;fontSize=11;fontColor=default;labelBackgroundColor=default;endArrow=classic;" edge="1" parent="1" source="XA2GUmZifDRQ7ThlRGcT-7" target="XA2GUmZifDRQ7ThlRGcT-4">
          <mxGeometry relative="1" as="geometry" />
        </mxCell>
        <mxCell id="XA2GUmZifDRQ7ThlRGcT-7" value="Dungeon Generator" style="rounded=0;whiteSpace=wrap;html=1;" vertex="1" parent="1">
          <mxGeometry x="480" y="110" width="120" height="60" as="geometry" />
        </mxCell>
        <mxCell id="XA2GUmZifDRQ7ThlRGcT-8" style="rounded=0;orthogonalLoop=1;jettySize=auto;html=1;exitX=0.5;exitY=1;exitDx=0;exitDy=0;entryX=0.5;entryY=0;entryDx=0;entryDy=0;" edge="1" parent="1" source="XA2GUmZifDRQ7ThlRGcT-4" target="XA2GUmZifDRQ7ThlRGcT-3">
          <mxGeometry relative="1" as="geometry" />
        </mxCell>
      </root>
    </mxGraphModel>
  </diagram>
</mxfile>
